<?xml version="1.0" encoding="utf-8"?>
<!-- Generator: Adobe Illustrator 16.0.0, SVG Export Plug-In . SVG Version: 6.00 Build 0)  -->
<!DOCTYPE svg PUBLIC "-//W3C//DTD SVG 1.1//EN" "http://www.w3.org/Graphics/SVG/1.1/DTD/svg11.dtd">
<svg version="1.1" id="圖層_1" xmlns="http://www.w3.org/2000/svg" xmlns:xlink="http://www.w3.org/1999/xlink" x="0px" y="0px"
	 width="176px" height="50px" viewBox="0 0 176 50" enable-background="new 0 0 176 50" xml:space="preserve">
<rect opacity="0.5" width="176" height="50"/>
<g opacity="0.5">
	<circle fill="none" stroke="#FFFFFF" cx="37.437" cy="12.289" r="9.688"/>
	<g>
		
			<rect x="36.976" y="6.415" transform="matrix(0.7068 0.7074 -0.7074 0.7068 19.6681 -22.8792)" fill="#FFFFFF" width="0.922" height="11.749"/>
		
			<rect x="36.976" y="6.414" transform="matrix(0.7068 -0.7074 0.7074 0.7068 2.282 30.0845)" fill="#FFFFFF" width="0.922" height="11.75"/>
	</g>
</g>
<circle fill="none" stroke="#FFFFFF" cx="37.437" cy="37.447" r="9.688"/>
<g>
	
		<rect x="36.976" y="31.572" transform="matrix(0.7068 0.7074 -0.7074 0.7068 37.4641 -15.5039)" fill="#FFFFFF" width="0.922" height="11.75"/>
	
		<rect x="36.976" y="31.572" transform="matrix(0.7068 -0.7074 0.7074 0.7068 -15.5142 37.4598)" fill="#FFFFFF" width="0.922" height="11.75"/>
</g>
<circle opacity="0.5" fill="none" stroke="#FFFFFF" cx="62.545" cy="12.289" r="9.688"/>
<g opacity="0.5">
	
		<rect x="62.084" y="11.035" transform="matrix(0.7071 0.7071 -0.7071 0.7071 28.3623 -40.0663)" fill="#FFFFFF" width="0.923" height="6.336"/>
	<polygon fill="#FFFFFF" points="65.075,12.252 64.459,12.941 59.979,8.461 60.631,7.809 	"/>
</g>
<circle fill="none" stroke="#FFFFFF" cx="62.527" cy="37.447" r="9.688"/>
<g>
	
		<rect x="62.066" y="36.193" transform="matrix(0.7071 0.7071 -0.7071 0.7071 46.1464 -32.6845)" fill="#FFFFFF" width="0.923" height="6.336"/>
	<polygon fill="#FFFFFF" points="65.056,37.41 64.441,38.1 59.96,33.619 60.613,32.967 	"/>
</g>
<circle opacity="0.5" fill="none" stroke="#FFFFFF" cx="87.63" cy="12.362" r="9.688"/>
<g opacity="0.5">
	
		<rect x="87.169" y="11.108" transform="matrix(-0.7071 0.7071 -0.7071 -0.7071 159.6893 -37.5927)" fill="#FFFFFF" width="0.923" height="6.336"/>
	<polygon fill="#FFFFFF" points="85.101,12.325 85.716,13.015 90.197,8.534 89.544,7.882 	"/>
</g>
<circle fill="none" stroke="#FFFFFF" cx="87.649" cy="37.521" r="9.688"/>
<g>
	
		<rect x="87.188" y="36.266" transform="matrix(-0.7071 0.7071 -0.7071 -0.7071 177.5105 5.3419)" fill="#FFFFFF" width="0.923" height="6.336"/>
	<polygon fill="#FFFFFF" points="85.12,37.483 85.735,38.173 90.215,33.692 89.563,33.04 	"/>
</g>
</svg>
